<svg width="24" height="24" viewBox="0 0 24 24" fill="none" xmlns="http://www.w3.org/2000/svg">
<path d="M16.3767 4.21314H16.2578V3.56878C16.2578 3.30586 16.1533 3.05372 15.9674 2.86781C15.7815 2.6819 15.5294 2.57745 15.2664 2.57745C15.0035 2.57745 14.7514 2.6819 14.5655 2.86781C14.3796 3.05372 14.2751 3.30586 14.2751 3.56878V4.21314H9.71502V3.56878C9.71502 3.30586 9.61058 3.05372 9.42467 2.86781C9.23876 2.6819 8.98661 2.57745 8.7237 2.57745C8.46078 2.57745 8.20863 2.6819 8.02272 2.86781C7.83681 3.05372 7.73237 3.30586 7.73237 3.56878V4.21314H7.62332C6.57166 4.21314 5.56307 4.63091 4.81943 5.37455C4.07579 6.11819 3.65802 7.12678 3.65802 8.17845V16.9517C3.65802 18.0033 4.07579 19.0119 4.81943 19.7556C5.56307 20.4992 6.57166 20.917 7.62332 20.917H16.3767C17.4284 20.917 18.437 20.4992 19.1806 19.7556C19.9243 19.0119 20.342 18.0033 20.342 16.9517V8.18836C20.3433 7.66679 20.2417 7.1501 20.043 6.66786C19.8444 6.18562 19.5525 5.74732 19.1841 5.37805C18.8158 5.00879 18.3782 4.71582 17.8965 4.51593C17.4147 4.31603 16.8983 4.21314 16.3767 4.21314ZM7.62332 6.19579H7.73237V6.84016C7.73237 7.10307 7.83681 7.35522 8.02272 7.54113C8.20863 7.72704 8.46078 7.83148 8.7237 7.83148C8.98661 7.83148 9.23876 7.72704 9.42467 7.54113C9.61058 7.35522 9.71502 7.10307 9.71502 6.84016V6.19579H14.2751V6.84016C14.2751 6.97034 14.3008 7.09925 14.3506 7.21952C14.4004 7.33979 14.4734 7.44908 14.5655 7.54113C14.6575 7.63318 14.7668 7.7062 14.8871 7.75602C15.0074 7.80584 15.1363 7.83148 15.2664 7.83148C15.3966 7.83148 15.5255 7.80584 15.6458 7.75602C15.7661 7.7062 15.8754 7.63318 15.9674 7.54113C16.0595 7.44908 16.1325 7.33979 16.1823 7.21952C16.2321 7.09925 16.2578 6.97034 16.2578 6.84016V6.19579H16.3767C16.9026 6.19579 17.4069 6.40468 17.7787 6.7765C18.1505 7.14832 18.3594 7.65261 18.3594 8.17845V9.1202H5.63076V8.18836C5.62944 7.92632 5.68009 7.66663 5.77976 7.42429C5.87943 7.18194 6.02615 6.96176 6.21144 6.77647C6.39673 6.59119 6.61691 6.44446 6.85925 6.34479C7.10159 6.24512 7.36129 6.19448 7.62332 6.19579ZM16.3767 18.9343H7.62332C7.09749 18.9343 6.5932 18.7254 6.22138 18.3536C5.84956 17.9818 5.64067 17.4775 5.64067 16.9517V11.1029H18.3693V16.9517C18.3693 17.2129 18.3177 17.4715 18.2174 17.7127C18.1172 17.9539 17.9702 18.1729 17.7851 18.3571C17.5999 18.5414 17.3802 18.6872 17.1385 18.7863C16.8968 18.8853 16.6379 18.9356 16.3767 18.9343Z" fill="white"/>
</svg>
