<svg width="24" height="24" viewBox="0 0 24 24" fill="none" xmlns="http://www.w3.org/2000/svg">
<path d="M18.9499 9.66236C18.3252 7.90257 17.0582 6.48594 15.3688 5.68523C13.6794 4.88452 11.7876 4.77894 10.0278 5.40366C9.0511 5.74682 8.1448 6.31876 7.43209 7.03147L5.76028 8.59769V6.55633C5.76028 6.07238 5.36433 5.67643 4.88039 5.67643C4.39644 5.67643 4.00049 6.07238 4.00049 6.55633V10.6303C4.00049 10.6742 4.01809 10.7094 4.02689 10.7534C4.03568 10.8238 4.04448 10.8854 4.07088 10.9558C4.09728 11.0262 4.14127 11.079 4.18527 11.1406C4.21166 11.1758 4.22046 11.211 4.24686 11.2374C4.24686 11.2374 4.25566 11.2374 4.25566 11.2462C4.33485 11.3254 4.42284 11.3958 4.52843 11.4398C4.53723 11.4398 4.53723 11.4486 4.54602 11.4486C4.65161 11.4926 4.766 11.5189 4.88918 11.5189H8.96311C9.44705 11.5189 9.84301 11.123 9.84301 10.6391C9.84301 10.1551 9.44705 9.75915 8.96311 9.75915H7.10653L8.65515 8.28973C9.20068 7.74419 9.8782 7.31304 10.6085 7.05787C11.9284 6.59152 13.345 6.67071 14.6033 7.26904C15.8615 7.86737 16.8118 8.93205 17.2781 10.2431C17.4365 10.7006 17.9469 10.947 18.4044 10.7798C18.8708 10.6215 19.1083 10.1199 18.9499 9.66236Z" fill="white"/>
<path d="M20.6835 14.2255C20.6747 14.1551 20.6659 14.0935 20.6395 14.0231C20.6131 13.9528 20.5691 13.9 20.5251 13.8384C20.4987 13.8032 20.4899 13.768 20.4635 13.7416C20.4635 13.7416 20.4547 13.7416 20.4547 13.7328C20.4019 13.68 20.3315 13.636 20.2612 13.6008C20.226 13.5832 20.1996 13.5568 20.1732 13.5392C20.1292 13.5216 20.0852 13.5216 20.0412 13.5128C19.9708 13.4952 19.9092 13.4688 19.8388 13.4688C19.83 13.4688 19.83 13.4688 19.8212 13.4688H15.7473C15.2633 13.4688 14.8674 13.8648 14.8674 14.3487C14.8674 14.8327 15.2633 15.2286 15.7473 15.2286H17.6039L16.0552 16.6892C15.0698 17.6747 13.7499 18.2203 12.3509 18.2203C10.9518 18.2203 9.6408 17.6747 8.65531 16.6892C8.10978 16.1437 7.67863 15.4662 7.42346 14.7359C7.26508 14.2783 6.76353 14.0407 6.29719 14.1991C5.83964 14.3575 5.60207 14.8678 5.76045 15.3254C6.10361 16.3021 6.67554 17.2084 7.40586 17.9387C8.7257 19.2585 10.4855 19.9888 12.3509 19.9888C14.2163 19.9888 15.9761 19.2585 17.2783 17.9563L18.9501 16.3901V18.4314C18.9501 18.9154 19.3461 19.3113 19.83 19.3113C20.314 19.3113 20.7099 18.9154 20.7099 18.4314V14.3575C20.7011 14.3047 20.6835 14.2695 20.6835 14.2255Z" fill="white"/>
</svg>
