<svg width="24" height="24" viewBox="0 0 24 24" fill="none" xmlns="http://www.w3.org/2000/svg">
<path fill-rule="evenodd" clip-rule="evenodd" d="M6.36111 5.5C5.88553 5.5 5.5 5.88553 5.5 6.36111V17.6389C5.5 18.0209 5.74869 18.3447 6.09298 18.4574L14.6919 9.85856C14.9848 9.56566 15.4596 9.56566 15.7525 9.85856L18.5 12.606V6.36111C18.5 5.88553 18.1145 5.5 17.6389 5.5H6.36111ZM18.5 14.7273L15.2222 11.4495L8.17174 18.5H17.6389C18.1145 18.5 18.5 18.1145 18.5 17.6389V14.7273ZM4 6.36111C4 5.05711 5.05711 4 6.36111 4H17.6389C18.9429 4 20 5.05711 20 6.36111V17.6389C20 18.9429 18.9429 20 17.6389 20H6.36111C5.05711 20 4 18.9429 4 17.6389V6.36111ZM9.18056 8.7222C8.92743 8.7222 8.72223 8.9274 8.72223 9.18053C8.72223 9.43366 8.92743 9.63887 9.18056 9.63887C9.43369 9.63887 9.6389 9.43366 9.6389 9.18053C9.6389 8.9274 9.43369 8.7222 9.18056 8.7222ZM7.22223 9.18053C7.22223 8.09897 8.099 7.2222 9.18056 7.2222C10.2621 7.2222 11.1389 8.09897 11.1389 9.18053C11.1389 10.2621 10.2621 11.1389 9.18056 11.1389C8.099 11.1389 7.22223 10.2621 7.22223 9.18053Z" fill="white"/>
</svg>
