<svg width="24" height="24" viewBox="0 0 24 24" fill="none" xmlns="http://www.w3.org/2000/svg">
<path d="M18.3141 11.8676C18.0598 11.8676 17.8159 11.9686 17.6361 12.1484C17.4563 12.3282 17.3552 12.5721 17.3552 12.8264V18.4071C17.3552 18.4902 17.3389 18.5725 17.3071 18.6492C17.2753 18.726 17.2286 18.7958 17.1699 18.8546C17.1111 18.9133 17.0413 18.9599 16.9646 18.9917C16.8878 19.0236 16.8055 19.0399 16.7224 19.0399H5.5611C5.47719 19.0412 5.39387 19.0258 5.31598 18.9945C5.23808 18.9633 5.16718 18.9169 5.1074 18.858C5.04761 18.7991 5.00014 18.7289 4.96773 18.6515C4.93533 18.5741 4.91865 18.491 4.91866 18.4071V7.24579C4.91865 7.16187 4.93533 7.07879 4.96773 7.00137C5.00014 6.92396 5.04761 6.85376 5.1074 6.79487C5.16718 6.73598 5.23808 6.68956 5.31598 6.65833C5.39387 6.62709 5.47719 6.61166 5.5611 6.61293H11.1417C11.3961 6.61293 11.6399 6.51191 11.8198 6.33209C11.9996 6.15226 12.1006 5.90837 12.1006 5.65406C12.1006 5.39975 11.9996 5.15586 11.8198 4.97604C11.6399 4.79621 11.3961 4.69519 11.1417 4.69519H5.5611C4.88376 4.69519 4.23401 4.9636 3.75416 5.44166C3.27431 5.91972 3.00345 6.56845 3.00092 7.24579V18.4071C3.00345 19.0844 3.27431 19.7331 3.75416 20.2112C4.23401 20.6893 4.88376 20.9577 5.5611 20.9577H16.7224C17.3981 20.9551 18.0454 20.6856 18.5231 20.2078C19.0009 19.73 19.2705 19.0827 19.273 18.4071V12.8264C19.273 12.5721 19.172 12.3282 18.9921 12.1484C18.8123 11.9686 18.5684 11.8676 18.3141 11.8676Z" fill="#374151"/>
<path d="M20.1826 3.77371C19.6865 3.27835 19.014 3.00012 18.3128 3.00012C17.6117 3.00012 16.9392 3.27835 16.443 3.77371L8.86796 11.3488C8.74406 11.4741 8.65484 11.6294 8.60906 11.7995L7.8132 14.9829C7.76352 15.1503 7.76048 15.3281 7.80441 15.4971C7.84835 15.666 7.93759 15.8198 8.0625 15.9418C8.15131 16.0324 8.25721 16.1045 8.37408 16.1539C8.49094 16.2032 8.61644 16.2289 8.7433 16.2295C8.81974 16.2387 8.897 16.2387 8.97343 16.2295L12.1665 15.424C12.3356 15.3881 12.4895 15.301 12.6076 15.1747L20.1826 7.59961C20.4411 7.35253 20.6468 7.05564 20.7873 6.72685C20.9279 6.39807 21.0003 6.04422 21.0003 5.68666C21.0003 5.3291 20.9279 4.97525 20.7873 4.64647C20.6468 4.31769 20.4411 4.0208 20.1826 3.77371ZM18.8306 6.17089L11.4953 13.5542L10.1145 13.8994L10.4597 12.5186L17.843 5.13531C17.9803 4.99798 18.1666 4.92084 18.3608 4.92084C18.555 4.92084 18.7413 4.99798 18.8786 5.13531C19.0159 5.27264 19.0931 5.45889 19.0931 5.6531C19.0931 5.84731 19.0159 6.03357 18.8786 6.17089H18.8306Z" fill="#374151"/>
</svg>
