<svg width="20" height="20" viewBox="0 0 20 20" fill="none" xmlns="http://www.w3.org/2000/svg">
<path d="M13.6375 14.9066C13.9311 15.1989 14.406 15.1978 14.6982 14.9043C14.9904 14.6107 14.9894 14.1358 14.6958 13.8436L13.6375 14.9066ZM9.87671 10.1043L9.34757 9.57277C9.20619 9.71352 9.12671 9.9048 9.12671 10.1043C9.12671 10.3038 9.20619 10.4951 9.34757 10.6358L9.87671 10.1043ZM14.6958 6.36497C14.9894 6.07273 14.9904 5.59786 14.6982 5.30431C14.406 5.01077 13.9311 5.0097 13.6375 5.30194L14.6958 6.36497ZM14.6958 13.8436L10.4059 9.57277L9.34757 10.6358L13.6375 14.9066L14.6958 13.8436ZM10.4059 10.6358L14.6958 6.36497L13.6375 5.30194L9.34757 9.57277L10.4059 10.6358Z" fill="#374151"/>
<path d="M9.51921 14.9066C9.81276 15.1989 10.2876 15.1978 10.5799 14.9043C10.8721 14.6107 10.871 14.1358 10.5775 13.8436L9.51921 14.9066ZM5.75839 10.1043L5.22925 9.57277C5.08787 9.71352 5.00839 9.9048 5.00839 10.1043C5.00839 10.3038 5.08787 10.4951 5.22925 10.6358L5.75839 10.1043ZM10.5775 6.36497C10.871 6.07273 10.8721 5.59786 10.5799 5.30431C10.2876 5.01077 9.81276 5.0097 9.51921 5.30194L10.5775 6.36497ZM10.5775 13.8436L6.28754 9.57277L5.22925 10.6358L9.51921 14.9066L10.5775 13.8436ZM6.28754 10.6358L10.5775 6.36497L9.51921 5.30194L5.22925 9.57277L6.28754 10.6358Z" fill="#374151"/>
</svg>
