<svg width="24" height="24" viewBox="0 0 24 24" fill="none" xmlns="http://www.w3.org/2000/svg">
<path fill-rule="evenodd" clip-rule="evenodd" d="M4 7C4 6.44771 4.44771 6 5 6H19C19.5523 6 20 6.44771 20 7C20 7.55228 19.5523 8 19 8H5C4.44771 8 4 7.55228 4 7ZM4 17C4 16.4477 4.44772 16 5 16H14C14.5523 16 15 16.4477 15 17C15 17.5523 14.5523 18 14 18H5C4.44771 18 4 17.5523 4 17ZM5 11C4.44771 11 4 11.4477 4 12C4 12.5523 4.44771 13 5 13H19C19.5523 13 20 12.5523 20 12C20 11.4477 19.5523 11 19 11H5Z" fill="white"/>
</svg>
