<svg width="24" height="25" viewBox="0 0 24 25" fill="none" xmlns="http://www.w3.org/2000/svg">
<path fill-rule="evenodd" clip-rule="evenodd" d="M5.64437 5.14437C6.05695 4.73178 6.61652 4.5 7.2 4.5H12.275C12.4739 4.5 12.6647 4.57902 12.8053 4.71967L17.8803 9.79467C18.021 9.93532 18.1 10.1261 18.1 10.325V18.3C18.1 18.8835 17.8682 19.4431 17.4556 19.8556C17.0431 20.2682 16.4835 20.5 15.9 20.5H7.2C6.61652 20.5 6.05694 20.2682 5.64437 19.8556C5.23179 19.4431 5 18.8835 5 18.3V6.7C5 6.11652 5.23178 5.55695 5.64437 5.14437ZM7.2 6C7.01435 6 6.8363 6.07375 6.70503 6.20503C6.57375 6.3363 6.5 6.51435 6.5 6.7V18.3C6.5 18.4857 6.57375 18.6637 6.70503 18.795C6.8363 18.9263 7.01435 19 7.2 19H15.9C16.0857 19 16.2637 18.9263 16.395 18.795C16.5263 18.6637 16.6 18.4857 16.6 18.3V10.6357L11.9643 6H7.2Z" fill="#6B7280"/>
<path fill-rule="evenodd" clip-rule="evenodd" d="M12.275 4.5C12.6892 4.5 13.025 4.83579 13.025 5.25V9.575H17.35C17.7642 9.575 18.1 9.91079 18.1 10.325C18.1 10.7392 17.7642 11.075 17.35 11.075H12.275C11.8608 11.075 11.525 10.7392 11.525 10.325V5.25C11.525 4.83579 11.8608 4.5 12.275 4.5Z" fill="#6B7280"/>
<path d="M9.64205 13.68V15.548C9.64205 15.8653 9.55538 16.108 9.38205 16.276C9.21138 16.444 8.97538 16.528 8.67405 16.528C8.35405 16.528 8.09805 16.4387 7.90605 16.26C7.71672 16.0813 7.62205 15.824 7.62205 15.488H8.39805C8.40072 15.7093 8.48205 15.82 8.64205 15.82C8.78605 15.82 8.85805 15.7293 8.85805 15.548V13.68H9.64205ZM12.338 14.62C12.338 14.7907 12.298 14.9467 12.218 15.088C12.1407 15.2267 12.022 15.3387 11.862 15.424C11.7047 15.5067 11.5113 15.548 11.282 15.548H10.894V16.5H10.11V13.68H11.282C11.5087 13.68 11.7007 13.72 11.858 13.8C12.018 13.88 12.138 13.9907 12.218 14.132C12.298 14.2733 12.338 14.436 12.338 14.62ZM11.206 14.924C11.4273 14.924 11.538 14.8227 11.538 14.62C11.538 14.4147 11.4273 14.312 11.206 14.312H10.894V14.924H11.206ZM14.453 14.608C14.4076 14.5333 14.345 14.476 14.265 14.436C14.1876 14.396 14.0956 14.376 13.989 14.376C13.7916 14.376 13.6356 14.44 13.521 14.568C13.409 14.696 13.353 14.868 13.353 15.084C13.353 15.3267 13.413 15.512 13.533 15.64C13.6556 15.7653 13.833 15.828 14.065 15.828C14.3396 15.828 14.5356 15.704 14.653 15.456H13.865V14.892H15.329V15.652C15.2676 15.8013 15.177 15.9413 15.057 16.072C14.9396 16.2027 14.7903 16.3107 14.609 16.396C14.4276 16.4787 14.221 16.52 13.989 16.52C13.7063 16.52 13.4556 16.46 13.237 16.34C13.021 16.2173 12.853 16.048 12.733 15.832C12.6156 15.6133 12.557 15.364 12.557 15.084C12.557 14.8067 12.6156 14.56 12.733 14.344C12.853 14.1253 13.021 13.956 13.237 13.836C13.453 13.7133 13.7023 13.652 13.985 13.652C14.3396 13.652 14.633 13.7373 14.865 13.908C15.097 14.0787 15.241 14.312 15.297 14.608H14.453Z" fill="#6B7280"/>
</svg>
