<svg width="20" height="20" viewBox="0 0 20 20" fill="none" xmlns="http://www.w3.org/2000/svg">
<path d="M6.36241 5.09361C6.06886 4.80137 5.59399 4.80243 5.30175 5.09598C5.00951 5.38953 5.01057 5.8644 5.30412 6.15664L6.36241 5.09361ZM10.1232 9.89596L10.6524 10.4275C10.7938 10.2867 10.8732 10.0954 10.8732 9.89596C10.8732 9.69646 10.7938 9.50519 10.6524 9.36444L10.1232 9.89596ZM5.30412 13.6353C5.01057 13.9275 5.00951 14.4024 5.30175 14.6959C5.59399 14.9895 6.06886 14.9905 6.36241 14.6983L5.30412 13.6353ZM5.30412 6.15664L9.59409 10.4275L10.6524 9.36444L6.36241 5.09361L5.30412 6.15664ZM9.59409 9.36444L5.30412 13.6353L6.36241 14.6983L10.6524 10.4275L9.59409 9.36444Z" fill="#374151"/>
<path d="M10.4807 5.09361C10.1871 4.80137 9.71227 4.80243 9.42004 5.09598C9.1278 5.38953 9.12886 5.8644 9.42241 6.15664L10.4807 5.09361ZM14.2415 9.89596L14.7707 10.4275C14.912 10.2867 14.9915 10.0954 14.9915 9.89596C14.9915 9.69646 14.912 9.50519 14.7707 9.36444L14.2415 9.89596ZM9.42241 13.6353C9.12886 13.9275 9.1278 14.4024 9.42004 14.6959C9.71227 14.9895 10.1871 14.9905 10.4807 14.6983L9.42241 13.6353ZM9.42241 6.15664L13.7124 10.4275L14.7707 9.36444L10.4807 5.09361L9.42241 6.15664ZM13.7124 9.36444L9.42241 13.6353L10.4807 14.6983L14.7707 10.4275L13.7124 9.36444Z" fill="#374151"/>
</svg>
