<svg width="20" height="20" viewBox="0 0 20 20" fill="none" xmlns="http://www.w3.org/2000/svg">
<path d="M11.1363 14.6971C11.4292 14.99 11.9041 14.99 12.197 14.6971C12.4899 14.4042 12.4899 13.9294 12.197 13.6365L11.1363 14.6971ZM7.5 10.0001L6.96967 9.4698C6.67678 9.76269 6.67678 10.2376 6.96967 10.5305L7.5 10.0001ZM12.197 6.36379C12.4899 6.0709 12.4899 5.59602 12.197 5.30313C11.9041 5.01024 11.4292 5.01024 11.1363 5.30313L12.197 6.36379ZM12.197 13.6365L8.03033 9.4698L6.96967 10.5305L11.1363 14.6971L12.197 13.6365ZM8.03033 10.5305L12.197 6.36379L11.1363 5.30313L6.96967 9.4698L8.03033 10.5305Z" fill="#374151"/>
</svg>
