<svg width="24" height="24" viewBox="0 0 24 24" fill="none" xmlns="http://www.w3.org/2000/svg">
<path d="M23.993 21.1846C23.8931 20.5752 23.5652 20.0247 23.074 19.6415C22.5827 19.2584 21.9637 19.0704 21.3388 19.1145H8.15172C8.10212 19.1144 8.05302 19.1242 8.00731 19.1431C7.9616 19.1621 7.92022 19.1899 7.88559 19.2249L4.26493 22.7717C4.1969 22.8412 4.15887 22.934 4.15887 23.0305C4.15887 23.1271 4.1969 23.2198 4.26493 23.2893C4.45668 23.5044 4.69248 23.6772 4.95681 23.7961C5.22115 23.915 5.50805 23.9775 5.79864 23.9793H21.773C22.0531 23.972 22.3282 23.9037 22.5783 23.7792C22.9741 23.6138 23.315 23.3427 23.5625 22.9963C23.81 22.65 23.9543 22.2424 23.979 21.8195V21.2605C23.9866 21.2358 23.9913 21.2104 23.993 21.1846Z" fill="white" fill-opacity="0.7"/>
<path d="M4.99329 17.1271V2.47039C5.00485 2.09331 4.92313 1.71912 4.75518 1.3801C4.56952 0.980569 4.27465 0.639849 3.90358 0.3961C3.53252 0.152351 3.09991 0.0151982 2.65422 0L2.35308 0C2.16112 0.00292709 1.97039 0.0307689 1.78582 0.0828062H1.7438C0.301138 0.690052 0 1.62162 0 2.31167V19.4043C0.00468193 19.6532 0.0569518 19.899 0.154071 20.1288V20.1702C0.298341 20.4561 0.482178 20.7208 0.700321 20.9569C0.734086 20.9934 0.775154 21.0227 0.820948 21.0429C0.866743 21.0631 0.916277 21.0737 0.966443 21.0742C1.06548 21.0753 1.16104 21.0382 1.23256 20.9707L4.90225 17.4031C4.93539 17.3654 4.96052 17.3216 4.97616 17.2742C4.9918 17.2268 4.99762 17.1768 4.99329 17.1271Z" fill="url(#paint0_linear_25_3616)"/>
<defs>
<linearGradient id="paint0_linear_25_3616" x1="2.49734" y1="0" x2="2.49734" y2="21.0742" gradientUnits="userSpaceOnUse">
<stop offset="0.0520833" stop-color="white"/>
<stop offset="0.432292" stop-color="white" stop-opacity="0.8"/>
<stop offset="1" stop-color="white" stop-opacity="0.6"/>
</linearGradient>
</defs>
</svg>
