<svg width="20" height="20" viewBox="0 0 20 20" fill="none" xmlns="http://www.w3.org/2000/svg">
<path fill-rule="evenodd" clip-rule="evenodd" d="M5.5 10.0001C5.5 10.8285 4.82843 11.5001 4 11.5001C3.17157 11.5001 2.5 10.8285 2.5 10.0001C2.5 9.17169 3.17157 8.50012 4 8.50012C4.82843 8.50012 5.5 9.17169 5.5 10.0001ZM11.5 10.0001C11.5 10.8285 10.8284 11.5001 10 11.5001C9.17157 11.5001 8.5 10.8285 8.5 10.0001C8.5 9.17169 9.17157 8.50012 10 8.50012C10.8284 8.50012 11.5 9.17169 11.5 10.0001ZM16 11.5001C16.8284 11.5001 17.5 10.8285 17.5 10.0001C17.5 9.17169 16.8284 8.50012 16 8.50012C15.1716 8.50012 14.5 9.17169 14.5 10.0001C14.5 10.8285 15.1716 11.5001 16 11.5001Z" fill="#374151"/>
</svg>
