<svg width="24" height="24" viewBox="0 0 24 24" fill="none" xmlns="http://www.w3.org/2000/svg">
<path fill-rule="evenodd" clip-rule="evenodd" d="M14.5934 7.2C14.5934 8.57242 13.4478 9.7125 12 9.7125C10.5522 9.7125 9.4066 8.57242 9.4066 7.2C9.4066 5.82757 10.5522 4.6875 12 4.6875C13.4478 4.6875 14.5934 5.82757 14.5934 7.2ZM16.3077 7.2C16.3077 9.51959 14.3791 11.4 12 11.4C9.62093 11.4 7.69231 9.51959 7.69231 7.2C7.69231 4.8804 9.62093 3 12 3C14.3791 3 16.3077 4.8804 16.3077 7.2ZM10.2439 14.2875H13.7561C16.1931 14.2875 18.2857 16.3324 18.2857 19C18.2857 19.1087 18.2441 19.192 18.1921 19.2453C18.1412 19.2975 18.0914 19.3125 18.0488 19.3125H5.95122C5.9086 19.3125 5.85882 19.2975 5.80794 19.2453C5.75589 19.192 5.71429 19.1087 5.71429 19C5.71429 16.3324 7.80694 14.2875 10.2439 14.2875ZM4 19C4 15.4654 6.79549 12.6 10.2439 12.6H13.7561C17.2045 12.6 20 15.4654 20 19C20 20.1046 19.1264 21 18.0488 21H5.95122C4.87359 21 4 20.1046 4 19Z" fill="white"/>
</svg>
