<svg width="16" height="16" viewBox="0 0 16 16" fill="none" xmlns="http://www.w3.org/2000/svg">
<path d="M14.9343 7.00386H8.98639V1.0559C8.98639 0.792985 8.88194 0.540838 8.69603 0.354928C8.51013 0.169018 8.25798 0.0645752 7.99506 0.0645752C7.73214 0.0645752 7.48 0.169018 7.29409 0.354928C7.10818 0.540838 7.00374 0.792985 7.00374 1.0559V7.00386H1.05578C0.792863 7.00386 0.540716 7.1083 0.354806 7.29421C0.168896 7.48012 0.0644531 7.73227 0.0644531 7.99518C0.0644531 8.2581 0.168896 8.51025 0.354806 8.69616C0.540716 8.88207 0.792863 8.98651 1.05578 8.98651H7.00374V14.9345C7.00374 15.1974 7.10818 15.4495 7.29409 15.6354C7.48 15.8213 7.73214 15.9258 7.99506 15.9258C8.25798 15.9258 8.51013 15.8213 8.69603 15.6354C8.88194 15.4495 8.98639 15.1974 8.98639 14.9345V8.98651H14.9343C15.1973 8.98651 15.4494 8.88207 15.6353 8.69616C15.8212 8.51025 15.9257 8.2581 15.9257 7.99518C15.9257 7.73227 15.8212 7.48012 15.6353 7.29421C15.4494 7.1083 15.1973 7.00386 14.9343 7.00386V7.00386Z" fill="#111827"/>
</svg>
