<svg width="20" height="20" viewBox="0 0 20 20" fill="none" xmlns="http://www.w3.org/2000/svg">
<path d="M8.03035 5.30312C7.73746 5.01023 7.26258 5.01023 6.96969 5.30312C6.6768 5.59601 6.6768 6.07089 6.96969 6.36378L8.03035 5.30312ZM11.6667 10.0001L12.197 10.5304C12.3377 10.3898 12.4167 10.199 12.4167 10.0001C12.4167 9.8012 12.3377 9.61044 12.197 9.46979L11.6667 10.0001ZM6.96969 13.6365C6.6768 13.9293 6.6768 14.4042 6.96969 14.6971C7.26258 14.99 7.73745 14.99 8.03035 14.6971L6.96969 13.6365ZM6.96969 6.36378L11.1364 10.5304L12.197 9.46979L8.03035 5.30312L6.96969 6.36378ZM11.1364 9.46979L6.96969 13.6365L8.03035 14.6971L12.197 10.5304L11.1364 9.46979Z" fill="#374151"/>
</svg>
