<svg width="24" height="24" viewBox="0 0 24 24" fill="none" xmlns="http://www.w3.org/2000/svg">
<path d="M15.9603 12.005C15.9592 12.2651 15.856 12.5143 15.6728 12.6989L9.72489 18.6469C9.53524 18.8093 9.2913 18.8942 9.04181 18.8845C8.79232 18.8749 8.55565 18.7715 8.3791 18.5949C8.20255 18.4184 8.09912 18.1817 8.08948 17.9322C8.07985 17.6827 8.16471 17.4388 8.32712 17.2491L13.5712 12.005L8.32711 6.75097C8.16471 6.56133 8.07985 6.31739 8.08948 6.06789C8.09912 5.8184 8.20255 5.58173 8.3791 5.40518C8.55565 5.22863 8.79232 5.1252 9.04181 5.11557C9.2913 5.10593 9.53524 5.1908 9.72489 5.3532L15.6728 11.3012C15.7647 11.3938 15.8374 11.5036 15.8867 11.6244C15.9361 11.7452 15.9611 11.8745 15.9603 12.005Z" fill="white"/>
</svg>
