<svg width="24" height="24" viewBox="0 0 24 24" fill="none" xmlns="http://www.w3.org/2000/svg">
<path d="M16.85 4.58H16.07C16.0674 4.16004 15.8987 3.75818 15.6008 3.46216C15.3029 3.16614 14.9 2.99999 14.48 3H9.73002C9.31005 2.99999 8.90714 3.16614 8.60924 3.46216C8.31135 3.75818 8.14266 4.16004 8.14002 4.58H7.36002C6.73228 4.58528 6.13204 4.83835 5.69002 5.28412C5.248 5.72988 5 6.33223 5.00002 6.96V18.03C4.9987 18.3434 5.05929 18.6539 5.17831 18.9439C5.29733 19.2338 5.47243 19.4973 5.69356 19.7194C5.9147 19.9414 6.17751 20.1176 6.46692 20.2379C6.75633 20.3581 7.06663 20.42 7.38002 20.42H16.87C17.5022 20.4174 18.1075 20.1644 18.5535 19.7165C18.9996 19.2685 19.25 18.6621 19.25 18.03V6.96C19.2487 6.64614 19.1856 6.33561 19.0643 6.04614C18.943 5.75668 18.7658 5.49394 18.5429 5.27294C18.3201 5.05193 18.0559 4.87699 17.7654 4.7581C17.4749 4.6392 17.1639 4.57868 16.85 4.58ZM9.74002 4.58H14.47V6.16H9.74002V4.58ZM17.63 18.02C17.6313 18.1233 17.6121 18.2258 17.5735 18.3216C17.5349 18.4174 17.4777 18.5045 17.4051 18.578C17.3326 18.6515 17.2461 18.7099 17.1508 18.7497C17.0556 18.7895 16.9533 18.81 16.85 18.81H7.36002C7.25674 18.81 7.15449 18.7895 7.0592 18.7497C6.96391 18.7099 6.87747 18.6515 6.80491 18.578C6.73235 18.5045 6.67511 18.4174 6.6365 18.3216C6.59789 18.2258 6.5787 18.1233 6.58002 18.02V6.96C6.58002 6.75313 6.6622 6.55474 6.80848 6.40846C6.95476 6.26218 7.15315 6.18 7.36002 6.18H8.14002C8.14525 6.59914 8.31476 6.9995 8.6121 7.29496C8.90944 7.59043 9.31085 7.75741 9.73002 7.76H14.48C14.8992 7.75741 15.3006 7.59043 15.5979 7.29496C15.8953 6.9995 16.0648 6.59914 16.07 6.18H16.85C17.0569 6.18 17.2553 6.26218 17.4016 6.40846C17.5478 6.55474 17.63 6.75313 17.63 6.96V18.02Z" fill="white"/>
</svg>
