<svg width="16" height="16" viewBox="0 0 16 16" fill="none" xmlns="http://www.w3.org/2000/svg">
<path fill-rule="evenodd" clip-rule="evenodd" d="M8.8 3.14999C11.0368 3.14999 12.85 4.96324 12.85 7.19999C12.85 9.43675 11.0368 11.25 8.8 11.25C6.56324 11.25 4.75 9.43675 4.75 7.19999C4.75 4.96324 6.56324 3.14999 8.8 3.14999ZM14.35 7.19999C14.35 4.13481 11.8652 1.64999 8.8 1.64999C5.73482 1.64999 3.25 4.13481 3.25 7.19999C3.25 8.46217 3.67133 9.62593 4.38101 10.5583L1.67003 13.2693C1.37713 13.5622 1.37713 14.0371 1.67002 14.33C1.96292 14.6229 2.43779 14.6229 2.73069 14.33L5.44167 11.619C6.37406 12.3287 7.53783 12.75 8.8 12.75C11.8652 12.75 14.35 10.2652 14.35 7.19999Z" fill="#374151"/>
</svg>
