<?xml version="1.0" encoding="utf-8"?>
<svg xmlns="http://www.w3.org/2000/svg" xmlns:xlink="http://www.w3.org/1999/xlink" style="margin: auto; background: none; display: block; shape-rendering: auto;" width="25px" height="25px" viewBox="0 0 100 100" preserveAspectRatio="xMidYMid">
<g transform="rotate(0 50 50)">
  <rect x="46.5" y="29.5" rx="3.5" ry="3.5" width="7" height="7" fill="#040404">
    <animate attributeName="opacity" values="1;0" keyTimes="0;1" dur="0.5813953488372093s" begin="-0.5167958656330749s" repeatCount="indefinite"></animate>
  </rect>
</g><g transform="rotate(40 50 50)">
  <rect x="46.5" y="29.5" rx="3.5" ry="3.5" width="7" height="7" fill="#040404">
    <animate attributeName="opacity" values="1;0" keyTimes="0;1" dur="0.5813953488372093s" begin="-0.45219638242894056s" repeatCount="indefinite"></animate>
  </rect>
</g><g transform="rotate(80 50 50)">
  <rect x="46.5" y="29.5" rx="3.5" ry="3.5" width="7" height="7" fill="#040404">
    <animate attributeName="opacity" values="1;0" keyTimes="0;1" dur="0.5813953488372093s" begin="-0.38759689922480617s" repeatCount="indefinite"></animate>
  </rect>
</g><g transform="rotate(120 50 50)">
  <rect x="46.5" y="29.5" rx="3.5" ry="3.5" width="7" height="7" fill="#040404">
    <animate attributeName="opacity" values="1;0" keyTimes="0;1" dur="0.5813953488372093s" begin="-0.32299741602067183s" repeatCount="indefinite"></animate>
  </rect>
</g><g transform="rotate(160 50 50)">
  <rect x="46.5" y="29.5" rx="3.5" ry="3.5" width="7" height="7" fill="#040404">
    <animate attributeName="opacity" values="1;0" keyTimes="0;1" dur="0.5813953488372093s" begin="-0.25839793281653745s" repeatCount="indefinite"></animate>
  </rect>
</g><g transform="rotate(200 50 50)">
  <rect x="46.5" y="29.5" rx="3.5" ry="3.5" width="7" height="7" fill="#040404">
    <animate attributeName="opacity" values="1;0" keyTimes="0;1" dur="0.5813953488372093s" begin="-0.19379844961240308s" repeatCount="indefinite"></animate>
  </rect>
</g><g transform="rotate(240 50 50)">
  <rect x="46.5" y="29.5" rx="3.5" ry="3.5" width="7" height="7" fill="#040404">
    <animate attributeName="opacity" values="1;0" keyTimes="0;1" dur="0.5813953488372093s" begin="-0.12919896640826872s" repeatCount="indefinite"></animate>
  </rect>
</g><g transform="rotate(280 50 50)">
  <rect x="46.5" y="29.5" rx="3.5" ry="3.5" width="7" height="7" fill="#040404">
    <animate attributeName="opacity" values="1;0" keyTimes="0;1" dur="0.5813953488372093s" begin="-0.06459948320413436s" repeatCount="indefinite"></animate>
  </rect>
</g><g transform="rotate(320 50 50)">
  <rect x="46.5" y="29.5" rx="3.5" ry="3.5" width="7" height="7" fill="#040404">
    <animate attributeName="opacity" values="1;0" keyTimes="0;1" dur="0.5813953488372093s" begin="0s" repeatCount="indefinite"></animate>
  </rect>
</g>
<!-- [ldio] generated by https://loading.io/ --></svg>