<svg width="24" height="24" viewBox="0 0 24 24" fill="none" xmlns="http://www.w3.org/2000/svg">
<path d="M20.3518 5.18465C20.2596 5.09174 20.15 5.01799 20.0292 4.96766C19.9084 4.91733 19.7788 4.89142 19.6479 4.89142C19.5171 4.89142 19.3875 4.91733 19.2667 4.96766C19.1459 5.01799 19.0362 5.09174 18.9441 5.18465L11.3902 12.7485L9.6058 10.9641C9.42006 10.7794 9.16881 10.6758 8.90691 10.6758C8.64502 10.6758 8.39376 10.7794 8.20803 10.9641C8.11511 11.0562 8.04136 11.1659 7.99103 11.2867C7.94071 11.4075 7.91479 11.5371 7.91479 11.6679C7.91479 11.7988 7.94071 11.9284 7.99103 12.0492C8.04136 12.17 8.11511 12.2796 8.20803 12.3718L10.6863 14.8501C10.8721 15.0347 11.1233 15.1384 11.3852 15.1384C11.6471 15.1384 11.8984 15.0347 12.0841 14.8501L20.3518 6.58242C20.5364 6.39668 20.64 6.14543 20.64 5.88354C20.64 5.62164 20.5364 5.37039 20.3518 5.18465Z" fill="white"/>
<path d="M18.8351 11.4994C18.5722 11.4994 18.32 11.6038 18.1341 11.7898C17.9482 11.9757 17.8438 12.2278 17.8438 12.4907V18.2801C17.8438 18.3668 17.8265 18.4527 17.793 18.5328C17.7595 18.6128 17.7105 18.6854 17.6486 18.7462C17.5868 18.8071 17.5135 18.8551 17.433 18.8874C17.3525 18.9197 17.2663 18.9357 17.1796 18.9343H5.60089C5.42909 18.9317 5.26521 18.8617 5.14464 18.7392C5.02408 18.6168 4.95651 18.4519 4.95653 18.2801V6.71129C4.95653 6.53514 5.02651 6.3662 5.15107 6.24164C5.27562 6.11708 5.44456 6.04711 5.62072 6.04711H14.7112C14.9741 6.04711 15.2262 5.94266 15.4121 5.75675C15.5981 5.57084 15.7025 5.3187 15.7025 5.05578C15.7025 4.79286 15.5981 4.54072 15.4121 4.35481C15.2262 4.1689 14.9741 4.06445 14.7112 4.06445H5.60089C4.90316 4.07226 4.2365 4.35425 3.74496 4.84951C3.25341 5.34476 2.97644 6.01352 2.97388 6.71129V18.2801C2.97647 18.9769 3.25376 19.6446 3.74558 20.1383C4.2374 20.632 4.90406 20.9118 5.60089 20.917H17.1697C17.5173 20.9183 17.8617 20.8511 18.1833 20.7193C18.505 20.5875 18.7975 20.3936 19.0442 20.1488C19.2909 19.9039 19.4869 19.6128 19.6211 19.2922C19.7554 18.9716 19.8251 18.6277 19.8264 18.2801V12.4907C19.8264 12.2278 19.722 11.9757 19.5361 11.7898C19.3502 11.6038 19.098 11.4994 18.8351 11.4994Z" fill="white"/>
</svg>
