<svg width="20" height="21" viewBox="0 0 20 21" fill="none" xmlns="http://www.w3.org/2000/svg">
<path d="M6.33633 7.49706L9.33509 4.49004V11.5945C9.33509 11.7698 9.40471 11.9379 9.52865 12.0619C9.65259 12.1858 9.82069 12.2554 9.99597 12.2554C10.1712 12.2554 10.3393 12.1858 10.4633 12.0619C10.5872 11.9379 10.6569 11.7698 10.6569 11.5945V4.49004L13.6639 7.49706C13.7872 7.61855 13.9534 7.68677 14.1265 7.68706C14.302 7.68632 14.4705 7.61832 14.5974 7.49706C14.721 7.37316 14.7904 7.20531 14.7904 7.03031C14.7904 6.85531 14.721 6.68745 14.5974 6.56356L10.4668 2.43303C10.4067 2.3698 10.3343 2.31945 10.254 2.28505C10.1738 2.25065 10.0874 2.23291 10.0001 2.23291C9.9128 2.23291 9.82641 2.25065 9.74618 2.28505C9.66594 2.31945 9.59354 2.3698 9.53335 2.43303L5.40283 6.56356C5.28892 6.68928 5.22771 6.85398 5.23189 7.02358C5.23607 7.19317 5.3053 7.35467 5.42526 7.47463C5.54522 7.59458 5.70671 7.66382 5.87631 7.66799C6.0459 7.67217 6.21061 7.61097 6.33633 7.49706Z" fill="#6B7280"/>
<path d="M14.9112 9.09957H13.3829V10.4131H14.9112C15.0442 10.4152 15.1712 10.469 15.2652 10.563C15.3593 10.6571 15.413 10.784 15.4152 10.917V16.1215C15.413 16.2544 15.3593 16.3814 15.2652 16.4754C15.1712 16.5695 15.0442 16.6233 14.9112 16.6254H5.08885C4.95587 16.6233 4.82892 16.5695 4.73488 16.4754C4.64083 16.3814 4.58706 16.2544 4.58493 16.1215V10.917C4.58706 10.784 4.64083 10.6571 4.73488 10.563C4.82892 10.469 4.95587 10.4152 5.08885 10.4131H6.60888V9.09131H5.08885C4.61041 9.10213 4.15534 9.30038 3.82161 9.64338C3.48789 9.98638 3.30218 10.4467 3.30446 10.9253V16.1297C3.30446 16.6139 3.49681 17.0783 3.8392 17.4207C4.18158 17.7631 4.64595 17.9554 5.13016 17.9554H14.9112C15.3954 17.9554 15.8598 17.7631 16.2022 17.4207C16.5446 17.0783 16.7369 16.6139 16.7369 16.1297V10.9253C16.7369 10.4411 16.5446 9.97669 16.2022 9.6343C15.8598 9.29192 15.3954 9.09957 14.9112 9.09957Z" fill="#6B7280"/>
</svg>
